<svg width="32" height="32" viewBox="0 0 32 32" fill="none" xmlns="http://www.w3.org/2000/svg">
<g clip-path="url(#clip0_170_3807)">
<path d="M32 20.5781V24H30V21.4219L28.2969 19.7031L28.3438 19.6562C27.9271 19.8854 27.4635 20 26.9531 20C26.4948 20 26.0729 19.9062 25.6875 19.7188L24 21.4219V24H22V20.5781L24.2656 18.3281L24.2188 18.2188L20.2969 9.4375L13.9219 16.0156C13.9427 16.1823 13.9583 16.3438 13.9688 16.5C13.9792 16.6562 13.9896 16.8229 14 17V30H16V32H0V30H2V17C2 16.2083 2.14583 15.4635 2.4375 14.7656C2.72917 14.0677 3.125 13.4479 3.625 12.9062C4.125 12.3646 4.71875 11.9271 5.40625 11.5938C6.09375 11.2604 6.83333 11.0677 7.625 11.0156L17.125 1.21875C17.5 0.822917 17.9375 0.520833 18.4375 0.3125C18.9375 0.104167 19.4583 0 20 0C20.3646 0 20.7292 0.0520833 21.0938 0.15625C21.4583 0.260417 21.8073 0.416667 22.1406 0.625C22.474 0.833333 22.7708 1.07292 23.0312 1.34375C23.2917 1.61458 23.5 1.92708 23.6562 2.28125L29.6562 15.6875C29.75 15.8958 29.8177 16.1094 29.8594 16.3281C29.901 16.5469 29.9219 16.7656 29.9219 16.9844C29.9219 17.2344 29.8958 17.4792 29.8438 17.7188C29.7917 17.9583 29.7031 18.1927 29.5781 18.4219L29.7031 18.2969L32 20.5781ZM12 30V17C12 16.4479 11.8958 15.9323 11.6875 15.4531C11.4792 14.974 11.1927 14.5469 10.8281 14.1719C10.4635 13.7969 10.0417 13.5104 9.5625 13.3125C9.08333 13.1146 8.5625 13.0104 8 13C7.44792 13 6.93229 13.1042 6.45312 13.3125C5.97396 13.5208 5.54688 13.8073 5.17188 14.1719C4.79688 14.5365 4.51042 14.9583 4.3125 15.4375C4.11458 15.9167 4.01042 16.4375 4 17V30H12ZM10.0625 11.3594C10.7083 11.599 11.2969 11.9375 11.8281 12.375C12.3594 12.8125 12.8021 13.3281 13.1562 13.9219L21.4375 5.39062C21.8125 4.99479 22 4.53125 22 4C22 3.71875 21.9479 3.45833 21.8438 3.21875C21.7396 2.97917 21.599 2.77083 21.4219 2.59375C21.2448 2.41667 21.0312 2.27083 20.7812 2.15625C20.5312 2.04167 20.2708 1.98958 20 2C19.4271 2 18.9479 2.20312 18.5625 2.60938L10.0625 11.3594ZM23.2656 6.29688C23.0781 6.59896 22.849 6.875 22.5781 7.125C22.3073 7.375 22.0469 7.63021 21.7969 7.89062L24.875 14.7812L26.7031 14L23.2656 6.29688ZM26.9531 18C27.2552 18 27.4948 17.901 27.6719 17.7031C27.849 17.5052 27.9375 17.2656 27.9375 16.9844C27.9375 16.776 27.8906 16.5781 27.7969 16.3906C27.7031 16.2031 27.6094 16.0156 27.5156 15.8281L25.6875 16.6094C25.75 16.7656 25.8125 16.9271 25.875 17.0938C25.9375 17.2604 26.0156 17.4115 26.1094 17.5469C26.2031 17.6823 26.3125 17.7917 26.4375 17.875C26.5625 17.9583 26.7344 18 26.9531 18ZM8 16C8.28125 16 8.54167 16.0521 8.78125 16.1562C9.02083 16.2604 9.22917 16.401 9.40625 16.5781C9.58333 16.7552 9.72917 16.9688 9.84375 17.2188C9.95833 17.4688 10.0104 17.7292 10 18C10 18.2812 9.94792 18.5417 9.84375 18.7812C9.73958 19.0208 9.59896 19.2292 9.42188 19.4062C9.24479 19.5833 9.03125 19.7292 8.78125 19.8438C8.53125 19.9583 8.27083 20.0104 8 20C7.71875 20 7.45833 19.9479 7.21875 19.8438C6.97917 19.7396 6.77083 19.599 6.59375 19.4219C6.41667 19.2448 6.27083 19.0312 6.15625 18.7812C6.04167 18.5312 5.98958 18.2708 6 18C6 17.7188 6.05208 17.4583 6.15625 17.2188C6.26042 16.9792 6.40104 16.7708 6.57812 16.5938C6.75521 16.4167 6.96875 16.2708 7.21875 16.1562C7.46875 16.0417 7.72917 15.9896 8 16Z" fill="#2563FF"/>
</g>
<defs>
<clipPath id="clip0_170_3807">
<rect width="32" height="32" fill="white"/>
</clipPath>
</defs>
</svg>
