<svg width="32" height="32" viewBox="0 0 32 32" fill="none" xmlns="http://www.w3.org/2000/svg">
<g clip-path="url(#clip0_170_3791)">
<path d="M30.964 21.7592V13.6922L31.467 13.4267C31.794 13.2567 32 12.9197 32.004 12.5507C32.008 12.1827 31.8085 11.8417 31.4855 11.6642L16.4405 3.61423C16.1395 3.44923 15.7755 3.4502 15.4725 3.6172L0.509975 11.6772C0.191444 11.8547 -0.00552495 12.1917 -0.00352495 12.5572C-0.00152495 12.9228 0.199475 13.2572 0.522006 13.4313L7.09651 16.9308C7.01401 17.0763 6.96301 17.2423 6.96301 17.4213V25.8833C6.96304 26.0244 6.99291 26.1638 7.05064 26.2926C7.10838 26.4213 7.19267 26.5364 7.29801 26.6303C7.51504 26.8228 9.59304 28.5083 15.9465 28.5083C22.2775 28.5083 24.4115 26.9153 24.634 26.7338C24.8665 26.5443 25.001 26.2603 25.001 25.9593V17.2802C25.001 17.1397 24.9715 17.0062 24.9195 16.8852L28.964 14.7487V21.7647C28.371 22.1117 27.969 22.7482 27.969 23.4842C27.969 24.5887 28.8645 25.4842 29.969 25.4842C31.0735 25.4842 31.969 24.5887 31.969 23.4842C31.969 22.7437 31.5615 22.1047 30.964 21.7592ZM23.001 25.3862C22.215 25.7642 20.135 26.5082 15.9465 26.5082C11.7315 26.5082 9.69848 25.7162 8.96298 25.3352V17.9247L15.457 21.3817C15.6027 21.4605 15.7658 21.5018 15.9315 21.5017C16.0928 21.5018 16.2518 21.4625 16.3945 21.3872L23.001 17.8977V25.3862ZM15.9395 19.3688L3.07697 12.5388L15.962 5.63326L28.887 12.5188L15.9395 19.3688Z" fill="#2563FF"/>
</g>
<defs>
<clipPath id="clip0_170_3791">
<rect width="32" height="32" fill="white"/>
</clipPath>
</defs>
</svg>
