<svg xmlns="http://www.w3.org/2000/svg" width="338.2105" height="46.1031" viewBox="0 0 338.2105 46.1031"><path d="M215.3231,0H217.96l26.2769,36.1569c1.5161,2.1074,3.7542,5.7959,3.7542,5.7959h.1314s-.33-3.49-.33-5.7959V0h2.8323V46.1022h-2.6342L221.7135,9.9445c-1.5162-2.1076-3.754-5.7961-3.754-5.7961h-.1336s.33,3.4915.33,5.7961V46.1022h-2.8324Z" fill="#04b0c4"/><path d="M273.0381,11.8123c8.9,0,13.35,7.0022,13.35,14.92,0,.7191-.13,1.7666-.13,1.7666H260.0158c0,9.489,6.4138,14.9193,14.0045,14.9193a14.8126,14.8126,0,0,0,10.1418-4.1217l1.5064,2.29A17.8323,17.8323,0,0,1,274.02,46.1022c-9.2278,0-16.8828-6.6747-16.8828-17.08C257.1375,17.9638,264.6619,11.8123,273.0381,11.8123Zm10.4711,14.1351c-.3274-7.9836-5.1039-11.5831-10.5353-11.5831-6.0221,0-11.5841,3.9259-12.7612,11.5831Z" fill="#04b0c4"/><path d="M302.8048,27.9688l-11.0586-16.21h3.5021L303.56,24.2593c.55.8927,1.1681,1.9238,1.1681,1.9238h.137s.6177-1.0311,1.1681-1.9238l8.3112-12.5008h3.5021l-11.0586,16.21,12.3637,18.1334H315.58l-9.4773-14.218c-.62-.9625-1.2376-1.9924-1.2376-1.9924h-.137s-.55.9614-1.2354,1.9924l-9.48,14.218h-3.5716Z" fill="#04b0c4"/><path d="M326.17,15.77H321.851V13.2833H326.17V3.9914h2.7488v9.2919h8.572V15.77h-8.572V33.7658c0,8.6382,5.1693,9.751,7.7867,9.751a7.59,7.59,0,0,0,1.5054-.1317v2.552a9.1572,9.1572,0,0,1-1.636.1316c-3.4027,0-10.4049-1.2433-10.4049-12.1061Z" fill="#04b0c4"/><path d="M61.1694,0H74.6708c4.2809,0,6.4541.461,8.2988,1.3829,3.82,1.91,6.3883,5.7959,6.3883,11.0642,0,6.5866-3.82,11.5253-9.2207,12.7111v.1323a9.3442,9.3442,0,0,1,1.0533,1.6466L91.5311,46.1022H88.1723L77.2393,25.6859H64.0018V46.1022H61.1694ZM76.5145,23.0506c6.06,0,9.88-4.3465,9.88-10.6035a9.3607,9.3607,0,0,0-5.4007-8.891c-1.3171-.5923-2.7666-.9218-6.4541-.9218H64.0018V23.0506Z" fill="#231f20"/><path d="M109.6556,11.8123c8.9,0,13.3495,7.0022,13.3495,14.92,0,.7191-.1306,1.7666-.1306,1.7666H96.6333c0,9.489,6.4127,14.9193,14.0044,14.9193a14.8142,14.8142,0,0,0,10.1429-4.1217l1.5044,2.29a17.8282,17.8282,0,0,1-11.6473,4.5154c-9.2267,0-16.8838-6.6747-16.8838-17.08C93.7539,17.9638,101.2794,11.8123,109.6556,11.8123Zm10.47,14.1351c-.3275-7.9836-5.104-11.5831-10.5355-11.5831-6.02,0-11.5829,3.9259-12.76,11.5831Z" fill="#231f20"/><path d="M132.949,15.77H128.63V13.2833h4.3186V3.9914h2.7488v9.2919h8.572V15.77h-8.572V33.7658c0,8.6382,5.1693,9.751,7.7867,9.751a7.59,7.59,0,0,0,1.5054-.1317v2.552a9.1572,9.1572,0,0,1-1.636.1316c-3.4027,0-10.4049-1.2433-10.4049-12.1061Z" fill="#231f20"/><path d="M169.7226,25.3577h2.1592V24.2459c0-7.2642-3.728-9.751-8.9646-9.751a15.3844,15.3844,0,0,0-9.3573,3.1415l-1.5709-2.2245s3.927-3.6,11.0588-3.6c7.5265,0,11.5839,4.188,11.5839,12.3684V46.1022h-2.75V40.9983a14.8715,14.8715,0,0,1,.2631-2.9448h-.13c.0642,0-2.9448,8.0487-11.4524,8.0487-5.301,0-11.125-2.9446-11.125-9.4889C149.4371,25.4893,163.9,25.3577,169.7226,25.3577Zm-9.03,18.1926c7.1336,0,11.1891-7.3949,11.1891-13.873V27.91h-2.093c-5.562,0-17.4723,0-17.4723,8.5076C152.3165,39.8853,155.1307,43.55,160.6927,43.55Z" fill="#231f20"/><path d="M185.0968,0h3.27V4.7767h-3.27Zm.2612,11.8123h2.7478v34.29H185.358Z" fill="#231f20"/><path d="M198.9667,0h2.75V38.3743c0,4.5842,2.3578,5.1078,3.8635,5.1078a7.819,7.819,0,0,0,.9829-.0654v2.5538a6.19,6.19,0,0,1-1.178.1317c-1.8995,0-6.4182-.7206-6.4182-6.8766Z" fill="#231f20"/><rect x="15.3677" y="15.3677" width="15.3677" height="15.3677" fill="#ffd400"/><polygon points="30.735 46.103 30.735 30.735 46.103 30.735 30.735 46.103" fill="#04b0c4"/><polygon points="15.368 15.368 0 15.368 15.368 0 15.368 15.368" fill="#04b0c4"/><polygon points="30.735 15.368 30.735 30.735 46.103 30.735 46.103 15.368 46.103 0 30.735 15.368" fill="#231f20"/><polygon points="30.735 0 15.368 0 15.368 15.368 30.735 15.368 46.103 0 30.735 0" fill="#6dceec"/></svg>