<svg width="32" height="32" viewBox="0 0 32 32" fill="none" xmlns="http://www.w3.org/2000/svg">
<path d="M24 24.6663C25.1067 24.6663 26 23.773 26 22.6663C26 21.5597 25.1067 20.6663 24 20.6663C22.8934 20.6663 22 21.5597 22 22.6663C22 23.773 22.8934 24.6663 24 24.6663ZM26 12.6663H22.6667V15.9997H28.6134L26 12.6663ZM8.00004 24.6663C9.10671 24.6663 10 23.773 10 22.6663C10 21.5597 9.10671 20.6663 8.00004 20.6663C6.89337 20.6663 6.00004 21.5597 6.00004 22.6663C6.00004 23.773 6.89337 24.6663 8.00004 24.6663ZM26.6667 10.6663L30.6667 15.9997V22.6663H28C28 24.8797 26.2134 26.6663 24 26.6663C21.7867 26.6663 20 24.8797 20 22.6663H12C12 24.8797 10.2134 26.6663 8.00004 26.6663C5.78671 26.6663 4.00004 24.8797 4.00004 22.6663H1.33337V7.99967C1.33337 6.51967 2.52004 5.33301 4.00004 5.33301H22.6667V10.6663H26.6667ZM4.00004 7.99967V19.9997H5.01337C5.74671 19.1863 6.81337 18.6663 8.00004 18.6663C9.18671 18.6663 10.2534 19.1863 10.9867 19.9997H20V7.99967H4.00004Z" fill="#2563FF"/>
</svg>
