<svg width="32" height="32" viewBox="0 0 32 32" fill="none" xmlns="http://www.w3.org/2000/svg">
<path d="M28 9.33301C28.3398 9.33338 28.6667 9.46351 28.9138 9.69681C29.1609 9.9301 29.3097 10.2489 29.3296 10.5882C29.3495 10.9275 29.2391 11.2615 29.021 11.5221C28.8029 11.7827 28.4935 11.9502 28.156 11.9903L28 11.9997V25.333C28.3398 25.3334 28.6667 25.4635 28.9138 25.6968C29.1609 25.9301 29.3097 26.2489 29.3296 26.5882C29.3495 26.9275 29.2391 27.2615 29.021 27.5221C28.8029 27.7827 28.4935 27.9502 28.156 27.9903L28 27.9997H4.00001C3.66017 27.9993 3.3333 27.8692 3.08618 27.6359C2.83907 27.4026 2.69036 27.0837 2.67045 26.7445C2.65053 26.4052 2.76091 26.0712 2.97903 25.8106C3.19715 25.55 3.50655 25.3825 3.84401 25.3423L4.00001 25.333V11.9997C3.66017 11.9993 3.3333 11.8692 3.08618 11.6359C2.83907 11.4026 2.69036 11.0837 2.67045 10.7445C2.65053 10.4052 2.76091 10.0712 2.97903 9.81056C3.19715 9.54996 3.50655 9.38248 3.84401 9.34234L4.00001 9.33301H28ZM25.3333 11.9997H6.66667V25.333H9.33334V15.9997C9.33334 15.6461 9.47382 15.3069 9.72387 15.0569C9.97391 14.8068 10.3131 14.6663 10.6667 14.6663C11.0203 14.6663 11.3594 14.8068 11.6095 15.0569C11.8595 15.3069 12 15.6461 12 15.9997V25.333H14.6667V15.9997C14.6667 15.6461 14.8072 15.3069 15.0572 15.0569C15.3072 14.8068 15.6464 14.6663 16 14.6663C16.3536 14.6663 16.6928 14.8068 16.9428 15.0569C17.1929 15.3069 17.3333 15.6461 17.3333 15.9997V25.333H20V15.9997C20 15.6461 20.1405 15.3069 20.3905 15.0569C20.6406 14.8068 20.9797 14.6663 21.3333 14.6663C21.687 14.6663 22.0261 14.8068 22.2762 15.0569C22.5262 15.3069 22.6667 15.6461 22.6667 15.9997V25.333H25.3333V11.9997ZM24 5.33301C24.3536 5.33301 24.6928 5.47348 24.9428 5.72353C25.1929 5.97358 25.3333 6.31272 25.3333 6.66634C25.3333 7.01996 25.1929 7.3591 24.9428 7.60915C24.6928 7.8592 24.3536 7.99967 24 7.99967H8.00001C7.64639 7.99967 7.30725 7.8592 7.0572 7.60915C6.80715 7.3591 6.66667 7.01996 6.66667 6.66634C6.66667 6.31272 6.80715 5.97358 7.0572 5.72353C7.30725 5.47348 7.64639 5.33301 8.00001 5.33301H24Z" fill="#2563FF"/>
</svg>
