<svg width="32" height="32" viewBox="0 0 32 32" fill="none" xmlns="http://www.w3.org/2000/svg">
<path fill-rule="evenodd" clip-rule="evenodd" d="M6.66667 6.66667C6.66667 5.95942 6.94762 5.28115 7.44772 4.78105C7.94781 4.28095 8.62609 4 9.33333 4H22.6667C23.3739 4 24.0522 4.28095 24.5523 4.78105C25.0524 5.28115 25.3333 5.95942 25.3333 6.66667V8H26.6667C27.0203 8 27.3594 8.14048 27.6095 8.39052C27.8595 8.64057 28 8.97971 28 9.33333C28 9.68696 27.8595 10.0261 27.6095 10.2761C27.3594 10.5262 27.0203 10.6667 26.6667 10.6667V25.3333C27.0203 25.3333 27.3594 25.4738 27.6095 25.7239C27.8595 25.9739 28 26.313 28 26.6667C28 27.0203 27.8595 27.3594 27.6095 27.6095C27.3594 27.8595 27.0203 28 26.6667 28H5.33333C4.97971 28 4.64057 27.8595 4.39052 27.6095C4.14048 27.3594 4 27.0203 4 26.6667C4 26.313 4.14048 25.9739 4.39052 25.7239C4.64057 25.4738 4.97971 25.3333 5.33333 25.3333V10.6667C4.97971 10.6667 4.64057 10.5262 4.39052 10.2761C4.14048 10.0261 4 9.68696 4 9.33333C4 8.97971 4.14048 8.64057 4.39052 8.39052C4.64057 8.14048 4.97971 8 5.33333 8H6.66667V6.66667ZM22.6667 6.66667V8H9.33333V6.66667H22.6667ZM24 10.6667V25.3333H19.3333V22C19.3333 21.1159 18.9821 20.2681 18.357 19.643C17.7319 19.0179 16.8841 18.6667 16 18.6667C15.1159 18.6667 14.2681 19.0179 13.643 19.643C13.0179 20.2681 12.6667 21.1159 12.6667 22V25.3333H8V10.6667H24ZM16 21.3333C16.1768 21.3333 16.3464 21.4036 16.4714 21.5286C16.5964 21.6536 16.6667 21.8232 16.6667 22V25.3333H15.3333V22C15.3333 21.8232 15.4036 21.6536 15.5286 21.5286C15.6536 21.4036 15.8232 21.3333 16 21.3333ZM10.6667 17.3333C11.0203 17.3333 11.3594 17.4738 11.6095 17.7239C11.8595 17.9739 12 18.313 12 18.6667V20C12 20.3536 11.8595 20.6928 11.6095 20.9428C11.3594 21.1929 11.0203 21.3333 10.6667 21.3333C10.313 21.3333 9.97391 21.1929 9.72386 20.9428C9.47381 20.6928 9.33333 20.3536 9.33333 20V18.6667C9.33333 18.313 9.47381 17.9739 9.72386 17.7239C9.97391 17.4738 10.313 17.3333 10.6667 17.3333ZM21.3333 17.3333C21.6599 17.3334 21.9751 17.4533 22.2192 17.6703C22.4632 17.8873 22.6191 18.1863 22.6573 18.5107L22.6667 18.6667V20C22.6663 20.3398 22.5362 20.6667 22.3029 20.9138C22.0696 21.1609 21.7507 21.3096 21.4115 21.3296C21.0722 21.3495 20.7382 21.2391 20.4776 21.021C20.217 20.8029 20.0495 20.4935 20.0093 20.156L20 20V18.6667C20 18.313 20.1405 17.9739 20.3905 17.7239C20.6406 17.4738 20.9797 17.3333 21.3333 17.3333ZM10.6667 12C10.9932 12 11.3085 12.1199 11.5525 12.337C11.7965 12.554 11.9525 12.853 11.9907 13.1773L12 13.3333V14.6667C11.9996 15.0065 11.8695 15.3334 11.6362 15.5805C11.4029 15.8276 11.0841 15.9763 10.7448 15.9962C10.4056 16.0161 10.0715 15.9058 9.81089 15.6876C9.55029 15.4695 9.3828 15.1601 9.34267 14.8227L9.33333 14.6667V13.3333C9.33333 12.9797 9.47381 12.6406 9.72386 12.3905C9.97391 12.1405 10.313 12 10.6667 12ZM16 12C16.3266 12 16.6418 12.1199 16.8858 12.337C17.1299 12.554 17.2858 12.853 17.324 13.1773L17.3333 13.3333V14.6667C17.333 15.0065 17.2028 15.3334 16.9695 15.5805C16.7362 15.8276 16.4174 15.9763 16.0781 15.9962C15.7389 16.0161 15.4048 15.9058 15.1442 15.6876C14.8836 15.4695 14.7161 15.1601 14.676 14.8227L14.6667 14.6667V13.3333C14.6667 12.9797 14.8071 12.6406 15.0572 12.3905C15.3072 12.1405 15.6464 12 16 12ZM21.3333 12C21.687 12 22.0261 12.1405 22.2761 12.3905C22.5262 12.6406 22.6667 12.9797 22.6667 13.3333V14.6667C22.6667 15.0203 22.5262 15.3594 22.2761 15.6095C22.0261 15.8595 21.687 16 21.3333 16C20.9797 16 20.6406 15.8595 20.3905 15.6095C20.1405 15.3594 20 15.0203 20 14.6667V13.3333C20 12.9797 20.1405 12.6406 20.3905 12.3905C20.6406 12.1405 20.9797 12 21.3333 12Z" fill="#2563FF"/>
</svg>
