<svg width="32" height="32" viewBox="0 0 32 32" fill="none" xmlns="http://www.w3.org/2000/svg">
<path d="M20 2.66699C20.7072 2.66699 21.3855 2.94794 21.8856 3.44804C22.3857 3.94814 22.6667 4.62641 22.6667 5.33366V12.0003H25.3333C26.0406 12.0003 26.7189 12.2813 27.219 12.7814C27.719 13.2815 28 13.9597 28 14.667V27.867C28 28.0596 27.9621 28.2503 27.8884 28.4283C27.8146 28.6062 27.7066 28.7679 27.5704 28.9041C27.4342 29.0403 27.2725 29.1483 27.0946 29.222C26.9167 29.2957 26.7259 29.3337 26.5333 29.3337H5.46667C5.27406 29.3337 5.08334 29.2957 4.9054 29.222C4.72745 29.1483 4.56577 29.0403 4.42958 28.9041C4.29338 28.7679 4.18535 28.6062 4.11164 28.4283C4.03794 28.2503 4 28.0596 4 27.867V5.33366C4 4.62641 4.28095 3.94814 4.78105 3.44804C5.28115 2.94794 5.95942 2.66699 6.66667 2.66699H20ZM20 5.33366H6.66667V26.667H9.33333V22.667C9.33333 21.6061 9.75476 20.5887 10.5049 19.8386C11.2551 19.0884 12.2725 18.667 13.3333 18.667C14.3942 18.667 15.4116 19.0884 16.1618 19.8386C16.9119 20.5887 17.3333 21.6061 17.3333 22.667V26.667H20V5.33366ZM25.3333 14.667H22.6667V26.667H25.3333V14.667ZM13.3333 21.3337C13.0068 21.3337 12.6916 21.4536 12.4475 21.6706C12.2035 21.8876 12.0475 22.1867 12.0093 22.511L12 22.667V26.667H14.6667V22.667C14.6667 22.3134 14.5262 21.9742 14.2761 21.7242C14.0261 21.4741 13.687 21.3337 13.3333 21.3337ZM13.3333 8.00033C13.687 8.00033 14.0261 8.1408 14.2761 8.39085C14.5262 8.6409 14.6667 8.98004 14.6667 9.33366V10.667H16C16.3536 10.667 16.6928 10.8075 16.9428 11.0575C17.1929 11.3076 17.3333 11.6467 17.3333 12.0003C17.3333 12.3539 17.1929 12.6931 16.9428 12.9431C16.6928 13.1932 16.3536 13.3337 16 13.3337H14.6667V14.667C14.6667 15.0206 14.5262 15.3598 14.2761 15.6098C14.0261 15.8598 13.687 16.0003 13.3333 16.0003C12.9797 16.0003 12.6406 15.8598 12.3905 15.6098C12.1405 15.3598 12 15.0206 12 14.667V13.3337H10.6667C10.313 13.3337 9.97391 13.1932 9.72386 12.9431C9.47381 12.6931 9.33333 12.3539 9.33333 12.0003C9.33333 11.6467 9.47381 11.3076 9.72386 11.0575C9.97391 10.8075 10.313 10.667 10.6667 10.667H12V9.33366C12 8.98004 12.1405 8.6409 12.3905 8.39085C12.6406 8.1408 12.9797 8.00033 13.3333 8.00033Z" fill="#2563FF"/>
</svg>
