<svg width="32" height="32" viewBox="0 0 32 32" fill="none" xmlns="http://www.w3.org/2000/svg">
<path d="M16.8934 2.95638L28.2267 9.28972C28.5594 9.45581 28.8392 9.71136 29.0347 10.0277C29.2302 10.344 29.3336 10.7085 29.3334 11.0804V13.0004C29.3334 13.9204 28.5867 14.667 27.6667 14.667H26.6667V25.3337H28C28.3536 25.3337 28.6928 25.4742 28.9428 25.7242C29.1929 25.9743 29.3334 26.3134 29.3334 26.667C29.3334 27.0207 29.1929 27.3598 28.9428 27.6099C28.6928 27.8599 28.3536 28.0004 28 28.0004H4.00002C3.6464 28.0004 3.30726 27.8599 3.05721 27.6099C2.80716 27.3598 2.66669 27.0207 2.66669 26.667C2.66669 26.3134 2.80716 25.9743 3.05721 25.7242C3.30726 25.4742 3.6464 25.3337 4.00002 25.3337H5.33335V14.667H4.33335C3.41335 14.667 2.66669 13.9204 2.66669 13.0004V11.0804C2.66669 10.3844 3.02669 9.74438 3.60802 9.38172L15.1054 2.95638C15.3831 2.81745 15.6894 2.74512 16 2.74512C16.3106 2.74512 16.6156 2.81745 16.8934 2.95638ZM24 14.667H8.00002V25.3337H12V17.3337H14.6667V25.3337H17.3334V17.3337H20V25.3337H24V14.667ZM16 5.49105L5.33335 11.491V12.0004H26.6667V11.491L16 5.49105ZM16 8.00038C16.3536 8.00038 16.6928 8.14086 16.9428 8.39091C17.1929 8.64096 17.3334 8.98009 17.3334 9.33372C17.3334 9.68734 17.1929 10.0265 16.9428 10.2765C16.6928 10.5266 16.3536 10.667 16 10.667C15.6464 10.667 15.3073 10.5266 15.0572 10.2765C14.8072 10.0265 14.6667 9.68734 14.6667 9.33372C14.6667 8.98009 14.8072 8.64096 15.0572 8.39091C15.3073 8.14086 15.6464 8.00038 16 8.00038Z" fill="#2563FF"/>
</svg>
